<svg width="1222" height="351" viewBox="0 0 1222 351" fill="none" xmlns="http://www.w3.org/2000/svg">
<path d="M645.069 271.305V174.719L632.505 173.261C630.86 172.887 629.551 172.326 628.579 171.578C627.606 170.755 627.12 169.596 627.12 168.101V159.911H645.069V153.629C645.069 146.674 646.153 140.318 648.322 134.559C650.491 128.726 653.744 123.715 658.082 119.527C662.419 115.339 667.804 112.086 674.235 109.768C680.742 107.449 688.258 106.29 696.783 106.29C699.625 106.29 702.542 106.477 705.533 106.851C708.524 107.225 711.105 107.786 713.273 108.534L712.488 118.966C712.413 119.714 712.114 120.238 711.591 120.537C711.142 120.836 710.506 121.023 709.684 121.098C708.861 121.173 707.814 121.21 706.543 121.21C705.346 121.135 703.963 121.098 702.392 121.098C689.08 121.098 679.433 123.865 673.45 129.399C667.467 134.858 664.476 143.122 664.476 154.19V159.911H733.129V271.305H713.049V174.382H665.037V271.305H645.069ZM789.502 273.1C780.528 273.1 773.61 270.594 768.749 265.584C763.963 260.573 761.57 253.356 761.57 243.933V174.382H747.884C746.687 174.382 745.678 174.046 744.855 173.373C744.032 172.625 743.621 171.503 743.621 170.008V162.043L762.243 159.687L766.842 124.575C767.066 123.453 767.553 122.556 768.3 121.883C769.123 121.135 770.17 120.761 771.441 120.761H781.537V159.911H814.406V174.382H781.537V242.587C781.537 247.373 782.697 250.926 785.015 253.244C787.333 255.562 790.325 256.721 793.989 256.721C796.083 256.721 797.878 256.46 799.374 255.936C800.944 255.338 802.29 254.702 803.412 254.029C804.534 253.356 805.469 252.758 806.217 252.234C807.039 251.636 807.75 251.337 808.348 251.337C809.395 251.337 810.33 251.973 811.153 253.244L816.986 262.779C813.546 265.995 809.395 268.538 804.534 270.407C799.673 272.202 794.662 273.1 789.502 273.1ZM823.806 271.305V157.668H835.809C838.651 157.668 840.408 159.051 841.081 161.819L842.652 174.158C847.588 168.699 853.122 164.286 859.254 160.921C865.387 157.556 872.454 155.873 880.456 155.873C886.663 155.873 892.123 156.92 896.834 159.014C901.62 161.033 905.584 163.95 908.725 167.764C911.941 171.503 914.371 176.028 916.017 181.338C917.662 186.647 918.485 192.518 918.485 198.95V271.305H898.405V198.95C898.405 190.349 896.423 183.693 892.459 178.982C888.57 174.196 882.625 171.802 874.623 171.802C868.64 171.802 863.068 173.223 857.908 176.065C852.823 178.907 848.149 182.758 843.886 187.62V271.305H823.806ZM984.247 155.873C991.053 155.873 997.335 157.032 1003.09 159.351C1008.93 161.594 1013.94 164.885 1018.13 169.222C1022.39 173.485 1025.72 178.795 1028.11 185.152C1030.5 191.434 1031.7 198.613 1031.7 206.69C1031.7 209.831 1031.36 211.925 1030.69 212.972C1030.02 214.019 1028.74 214.542 1026.88 214.542H950.93C951.08 221.722 952.052 227.966 953.847 233.276C955.642 238.586 958.11 243.036 961.251 246.625C964.392 250.14 968.131 252.795 972.469 254.59C976.806 256.31 981.667 257.17 987.052 257.17C992.063 257.17 996.363 256.609 999.952 255.488C1003.62 254.291 1006.76 253.02 1009.38 251.673C1011.99 250.327 1014.16 249.093 1015.88 247.972C1017.68 246.775 1019.21 246.177 1020.48 246.177C1022.13 246.177 1023.4 246.812 1024.3 248.084L1029.9 255.375C1027.44 258.367 1024.48 260.984 1021.04 263.228C1017.6 265.397 1013.9 267.191 1009.94 268.612C1006.05 270.033 1002.01 271.08 997.821 271.753C993.633 272.501 989.482 272.875 985.369 272.875C977.517 272.875 970.263 271.566 963.607 268.949C957.025 266.257 951.304 262.368 946.443 257.282C941.657 252.122 937.918 245.765 935.225 238.212C932.533 230.659 931.187 221.984 931.187 212.187C931.187 204.259 932.384 196.856 934.777 189.975C937.245 183.095 940.76 177.15 945.321 172.139C949.883 167.054 955.455 163.09 962.036 160.248C968.617 157.331 976.021 155.873 984.247 155.873ZM984.696 170.568C975.049 170.568 967.458 173.373 961.924 178.982C956.39 184.516 952.95 192.219 951.603 202.091H1013.75C1013.75 197.454 1013.08 193.228 1011.73 189.414C1010.46 185.526 1008.55 182.198 1006.01 179.431C1003.54 176.589 1000.51 174.42 996.924 172.924C993.334 171.354 989.258 170.568 984.696 170.568ZM1111.19 176.402C1110.3 178.047 1108.91 178.87 1107.04 178.87C1105.92 178.87 1104.65 178.458 1103.23 177.636C1101.81 176.813 1100.05 175.916 1097.96 174.943C1095.94 173.896 1093.51 172.962 1090.66 172.139C1087.82 171.241 1084.46 170.793 1080.57 170.793C1077.2 170.793 1074.17 171.241 1071.48 172.139C1068.79 172.962 1066.47 174.121 1064.53 175.616C1062.66 177.112 1061.2 178.87 1060.15 180.889C1059.18 182.833 1058.69 184.965 1058.69 187.283C1058.69 190.2 1059.52 192.63 1061.16 194.575C1062.88 196.519 1065.13 198.202 1067.89 199.623C1070.66 201.044 1073.8 202.315 1077.32 203.437C1080.83 204.484 1084.42 205.643 1088.08 206.914C1091.82 208.111 1095.45 209.457 1098.97 210.953C1102.48 212.448 1105.62 214.318 1108.39 216.562C1111.16 218.805 1113.36 221.572 1115.01 224.863C1116.73 228.079 1117.59 231.967 1117.59 236.529C1117.59 241.764 1116.65 246.625 1114.78 251.113C1112.91 255.525 1110.15 259.376 1106.48 262.667C1102.82 265.883 1098.33 268.425 1093.02 270.295C1087.71 272.165 1081.58 273.1 1074.62 273.1C1066.7 273.1 1059.52 271.828 1053.08 269.285C1046.65 266.668 1041.19 263.34 1036.71 259.302L1041.42 251.673C1042.02 250.701 1042.73 249.953 1043.55 249.43C1044.37 248.906 1045.42 248.645 1046.69 248.645C1048.04 248.645 1049.46 249.168 1050.95 250.215C1052.45 251.262 1054.24 252.421 1056.34 253.693C1058.51 254.964 1061.12 256.123 1064.19 257.17C1067.26 258.217 1071.07 258.741 1075.63 258.741C1079.52 258.741 1082.92 258.255 1085.84 257.282C1088.76 256.235 1091.19 254.852 1093.13 253.132C1095.08 251.412 1096.5 249.43 1097.4 247.186C1098.37 244.943 1098.85 242.55 1098.85 240.007C1098.85 236.866 1097.99 234.286 1096.27 232.267C1094.63 230.173 1092.42 228.415 1089.65 226.994C1086.89 225.498 1083.71 224.227 1080.12 223.18C1076.6 222.058 1072.98 220.899 1069.24 219.703C1065.57 218.506 1061.95 217.16 1058.36 215.664C1054.84 214.094 1051.7 212.149 1048.93 209.831C1046.17 207.513 1043.92 204.671 1042.2 201.305C1040.56 197.865 1039.74 193.715 1039.74 188.854C1039.74 184.516 1040.63 180.365 1042.43 176.402C1044.22 172.363 1046.84 168.848 1050.28 165.857C1053.72 162.791 1057.95 160.36 1062.96 158.565C1067.97 156.77 1073.69 155.873 1080.12 155.873C1087.6 155.873 1094.29 157.07 1100.2 159.463C1106.18 161.781 1111.34 164.997 1115.68 169.11L1111.19 176.402ZM1197.04 176.402C1196.14 178.047 1194.75 178.87 1192.89 178.87C1191.76 178.87 1190.49 178.458 1189.07 177.636C1187.65 176.813 1185.89 175.916 1183.8 174.943C1181.78 173.896 1179.35 172.962 1176.51 172.139C1173.67 171.241 1170.3 170.793 1166.41 170.793C1163.05 170.793 1160.02 171.241 1157.32 172.139C1154.63 172.962 1152.31 174.121 1150.37 175.616C1148.5 177.112 1147.04 178.87 1145.99 180.889C1145.02 182.833 1144.54 184.965 1144.54 187.283C1144.54 190.2 1145.36 192.63 1147 194.575C1148.72 196.519 1150.97 198.202 1153.74 199.623C1156.5 201.044 1159.64 202.315 1163.16 203.437C1166.67 204.484 1170.26 205.643 1173.93 206.914C1177.67 208.111 1181.29 209.457 1184.81 210.953C1188.32 212.448 1191.46 214.318 1194.23 216.562C1197 218.805 1199.2 221.572 1200.85 224.863C1202.57 228.079 1203.43 231.967 1203.43 236.529C1203.43 241.764 1202.5 246.625 1200.63 251.113C1198.76 255.525 1195.99 259.376 1192.32 262.667C1188.66 265.883 1184.17 268.425 1178.86 270.295C1173.55 272.165 1167.42 273.1 1160.47 273.1C1152.54 273.1 1145.36 271.828 1138.93 269.285C1132.5 266.668 1127.04 263.34 1122.55 259.302L1127.26 251.673C1127.86 250.701 1128.57 249.953 1129.39 249.43C1130.21 248.906 1131.26 248.645 1132.53 248.645C1133.88 248.645 1135.3 249.168 1136.8 250.215C1138.29 251.262 1140.09 252.421 1142.18 253.693C1144.35 254.964 1146.97 256.123 1150.03 257.17C1153.1 258.217 1156.91 258.741 1161.48 258.741C1165.36 258.741 1168.77 258.255 1171.68 257.282C1174.6 256.235 1177.03 254.852 1178.98 253.132C1180.92 251.412 1182.34 249.43 1183.24 247.186C1184.21 244.943 1184.7 242.55 1184.7 240.007C1184.7 236.866 1183.84 234.286 1182.12 232.267C1180.47 230.173 1178.26 228.415 1175.5 226.994C1172.73 225.498 1169.55 224.227 1165.96 223.18C1162.45 222.058 1158.82 220.899 1155.08 219.703C1151.42 218.506 1147.79 217.16 1144.2 215.664C1140.68 214.094 1137.54 212.149 1134.78 209.831C1132.01 207.513 1129.77 204.671 1128.05 201.305C1126.4 197.865 1125.58 193.715 1125.58 188.854C1125.58 184.516 1126.48 180.365 1128.27 176.402C1130.07 172.363 1132.68 168.848 1136.12 165.857C1139.56 162.791 1143.79 160.36 1148.8 158.565C1153.81 156.77 1159.53 155.873 1165.96 155.873C1173.44 155.873 1180.13 157.07 1186.04 159.463C1192.03 161.781 1197.19 164.997 1201.52 169.11L1197.04 176.402Z" fill="black"/>
<path d="M124.851 239.313C129.546 239.313 133.427 240.848 136.497 243.917C139.747 246.806 141.372 250.598 141.372 255.292C141.372 259.806 139.747 263.597 136.497 266.667C133.427 269.556 129.546 271 124.851 271H36.8325C32.1381 271 28.166 269.465 24.9161 266.396C21.8467 263.146 20.312 259.174 20.312 254.48V97.9416C20.312 93.2472 21.937 89.3654 25.1869 86.296C28.4368 83.0461 32.5895 81.4211 37.645 81.4211C42.1587 81.4211 46.0406 83.0461 49.2905 86.296C52.5404 89.3654 54.1654 93.2472 54.1654 97.9416V239.313H124.851ZM199.47 81.4211C216.442 81.4211 230.977 85.6641 243.074 94.15C255.351 102.455 264.649 113.83 270.969 128.274C277.469 142.538 280.718 158.517 280.718 176.211C280.718 193.905 277.469 209.974 270.969 224.418C264.649 238.681 255.351 250.056 243.074 258.542C230.977 266.847 216.442 271 199.47 271H134.743C130.048 271 126.076 269.465 122.826 266.396C119.757 263.146 118.222 259.174 118.222 254.48V97.9416C118.222 93.2472 119.757 89.3654 122.826 86.296C126.076 83.0461 130.048 81.4211 134.743 81.4211H199.47ZM196.762 239.855C213.012 239.855 225.199 233.897 233.324 221.98C241.449 209.883 245.511 194.627 245.511 176.211C245.511 157.794 241.358 142.628 233.053 130.712C224.928 118.615 212.831 112.566 196.762 112.566H152.076V239.855H196.762ZM401.465 81.4211C405.798 81.4211 409.319 82.8655 412.027 85.7544C414.736 88.6432 416.09 92.2542 416.09 96.5874V254.48C416.09 259.174 414.465 263.146 411.215 266.396C408.145 269.465 404.264 271 399.569 271C397.042 271 394.514 270.639 391.986 269.917C389.639 269.014 387.924 267.84 386.84 266.396L287.447 140.191V255.834C287.447 260.167 286.002 263.778 283.114 266.667C280.405 269.556 276.794 271 272.281 271C267.947 271 264.427 269.556 261.718 266.667C259.01 263.778 257.656 260.167 257.656 255.834V97.9416C257.656 93.2472 259.191 89.3654 262.26 86.296C265.51 83.0461 269.482 81.4211 274.176 81.4211C276.885 81.4211 279.503 81.9628 282.03 83.0461C284.739 84.1294 286.725 85.5738 287.989 87.3793L386.57 213.043V96.5874C386.57 92.2542 387.924 88.6432 390.632 85.7544C393.521 82.8655 397.132 81.4211 401.465 81.4211Z" fill="black"/>
<path d="M591.783 271.488H557.003L522.223 241.677L487.444 271.488H452.664C447.695 271.488 442.727 269.501 439.745 266.52C435.771 262.545 434.777 258.57 434.777 253.601V175.098C434.777 170.13 436.764 165.161 439.745 162.18L440.739 161.186L523.217 91.6265L606.689 161.186C609.67 164.167 611.657 169.136 611.657 174.104V252.608C611.657 257.576 609.67 262.545 606.689 265.526C601.72 269.501 596.752 271.488 591.783 271.488ZM564.953 250.62H589.796V176.092L522.223 119.45L454.651 176.092V250.62H478.5L521.23 214.847L564.953 250.62Z" fill="black"/>
</svg>
