<svg viewBox="325 0 903 258" fill="none" xmlns="http://www.w3.org/2000/svg">
<path d="M925.448 219.003V171.842L919.313 171.13C918.51 170.948 917.871 170.674 917.396 170.309C916.921 169.907 916.684 169.341 916.684 168.611V164.612H925.448V161.545C925.448 158.149 925.977 155.045 927.036 152.233C928.095 149.385 929.684 146.938 931.802 144.893C933.92 142.848 936.549 141.26 939.689 140.128C942.866 138.996 946.536 138.43 950.699 138.43C952.087 138.43 953.511 138.521 954.971 138.704C956.432 138.886 957.692 139.16 958.751 139.525L958.367 144.619C958.331 144.984 958.185 145.24 957.929 145.386C957.71 145.532 957.4 145.623 956.998 145.66C956.596 145.696 956.085 145.715 955.464 145.715C954.88 145.678 954.205 145.66 953.438 145.66C946.938 145.66 942.227 147.011 939.306 149.713C936.385 152.379 934.924 156.414 934.924 161.818V164.612H968.446V219.003H958.641V171.678H935.198V219.003H925.448ZM995.972 219.88C991.59 219.88 988.212 218.656 985.839 216.21C983.502 213.763 982.333 210.239 982.333 205.638V171.678H975.651C975.066 171.678 974.573 171.514 974.172 171.185C973.77 170.82 973.569 170.272 973.569 169.542V165.653L982.662 164.502L984.907 147.358C985.017 146.81 985.254 146.372 985.62 146.043C986.021 145.678 986.532 145.496 987.153 145.496H992.083V164.612H1008.13V171.678H992.083V204.981C992.083 207.318 992.649 209.052 993.781 210.184C994.913 211.316 996.374 211.882 998.163 211.882C999.185 211.882 1000.06 211.755 1000.79 211.499C1001.56 211.207 1002.22 210.897 1002.76 210.568C1003.31 210.239 1003.77 209.947 1004.13 209.691C1004.54 209.399 1004.88 209.253 1005.17 209.253C1005.69 209.253 1006.14 209.564 1006.54 210.184L1009.39 214.84C1007.71 216.411 1005.69 217.652 1003.31 218.565C1000.94 219.441 998.492 219.88 995.972 219.88ZM1012.72 219.003V163.516H1018.58C1019.97 163.516 1020.83 164.192 1021.16 165.543L1021.92 171.568C1024.33 168.903 1027.04 166.748 1030.03 165.105C1033.02 163.462 1036.48 162.64 1040.38 162.64C1043.41 162.64 1046.08 163.151 1048.38 164.174C1050.72 165.16 1052.65 166.584 1054.19 168.446C1055.76 170.272 1056.94 172.481 1057.75 175.074C1058.55 177.667 1058.95 180.533 1058.95 183.674V219.003H1049.15V183.674C1049.15 179.474 1048.18 176.224 1046.24 173.924C1044.35 171.587 1041.44 170.418 1037.53 170.418C1034.61 170.418 1031.89 171.112 1029.37 172.5C1026.89 173.887 1024.61 175.768 1022.53 178.141V219.003H1012.72ZM1091.06 162.64C1094.39 162.64 1097.45 163.206 1100.26 164.338C1103.11 165.434 1105.56 167.04 1107.6 169.158C1109.69 171.24 1111.31 173.832 1112.48 176.936C1113.65 180.004 1114.23 183.509 1114.23 187.453C1114.23 188.987 1114.07 190.009 1113.74 190.52C1113.41 191.032 1112.79 191.287 1111.88 191.287H1074.79C1074.87 194.793 1075.34 197.842 1076.22 200.435C1077.09 203.027 1078.3 205.2 1079.83 206.953C1081.37 208.669 1083.19 209.965 1085.31 210.842C1087.43 211.682 1089.8 212.102 1092.43 212.102C1094.88 212.102 1096.98 211.828 1098.73 211.28C1100.52 210.696 1102.05 210.075 1103.33 209.418C1104.61 208.76 1105.67 208.158 1106.51 207.61C1107.39 207.026 1108.13 206.734 1108.75 206.734C1109.56 206.734 1110.18 207.044 1110.62 207.665L1113.36 211.225C1112.15 212.686 1110.71 213.964 1109.03 215.059C1107.35 216.118 1105.54 216.995 1103.61 217.689C1101.71 218.382 1099.74 218.894 1097.69 219.222C1095.65 219.587 1093.62 219.77 1091.61 219.77C1087.78 219.77 1084.23 219.131 1080.98 217.853C1077.77 216.538 1074.98 214.639 1072.6 212.156C1070.27 209.637 1068.44 206.533 1067.13 202.845C1065.81 199.157 1065.15 194.921 1065.15 190.137C1065.15 186.266 1065.74 182.651 1066.91 179.292C1068.11 175.932 1069.83 173.029 1072.06 170.582C1074.28 168.099 1077 166.164 1080.22 164.776C1083.43 163.352 1087.05 162.64 1091.06 162.64ZM1091.28 169.816C1086.57 169.816 1082.86 171.185 1080.16 173.924C1077.46 176.626 1075.78 180.387 1075.12 185.207H1105.47C1105.47 182.943 1105.14 180.88 1104.48 179.018C1103.86 177.119 1102.93 175.494 1101.69 174.143C1100.48 172.755 1099 171.696 1097.25 170.966C1095.5 170.199 1093.51 169.816 1091.28 169.816ZM1153.05 172.664C1152.61 173.467 1151.93 173.869 1151.02 173.869C1150.47 173.869 1149.85 173.668 1149.16 173.266C1148.46 172.865 1147.61 172.426 1146.58 171.952C1145.6 171.441 1144.41 170.984 1143.02 170.582C1141.64 170.144 1139.99 169.925 1138.09 169.925C1136.45 169.925 1134.97 170.144 1133.66 170.582C1132.34 170.984 1131.21 171.55 1130.26 172.28C1129.35 173.011 1128.64 173.869 1128.13 174.855C1127.65 175.804 1127.41 176.845 1127.41 177.977C1127.41 179.401 1127.81 180.588 1128.62 181.537C1129.46 182.487 1130.55 183.308 1131.9 184.002C1133.26 184.696 1134.79 185.317 1136.51 185.865C1138.22 186.376 1139.97 186.942 1141.76 187.563C1143.59 188.147 1145.36 188.804 1147.08 189.534C1148.79 190.265 1150.33 191.178 1151.68 192.273C1153.03 193.369 1154.11 194.72 1154.91 196.326C1155.75 197.897 1156.17 199.796 1156.17 202.023C1156.17 204.579 1155.71 206.953 1154.8 209.144C1153.89 211.298 1152.54 213.179 1150.75 214.786C1148.96 216.356 1146.77 217.597 1144.17 218.51C1141.58 219.423 1138.59 219.88 1135.19 219.88C1131.32 219.88 1127.81 219.259 1124.67 218.017C1121.53 216.739 1118.87 215.114 1116.68 213.142L1118.98 209.418C1119.27 208.943 1119.62 208.578 1120.02 208.322C1120.42 208.067 1120.93 207.939 1121.55 207.939C1122.21 207.939 1122.9 208.194 1123.63 208.706C1124.36 209.217 1125.24 209.783 1126.26 210.404C1127.32 211.024 1128.6 211.59 1130.1 212.102C1131.59 212.613 1133.46 212.868 1135.68 212.868C1137.58 212.868 1139.24 212.631 1140.67 212.156C1142.09 211.645 1143.28 210.97 1144.23 210.13C1145.18 209.29 1145.87 208.322 1146.31 207.227C1146.79 206.131 1147.02 204.963 1147.02 203.721C1147.02 202.187 1146.6 200.928 1145.76 199.942C1144.96 198.919 1143.88 198.061 1142.53 197.367C1141.18 196.637 1139.63 196.016 1137.88 195.505C1136.16 194.957 1134.39 194.391 1132.56 193.807C1130.77 193.223 1129 192.565 1127.25 191.835C1125.53 191.068 1124 190.119 1122.65 188.987C1121.3 187.855 1120.2 186.467 1119.36 184.824C1118.56 183.144 1118.16 181.117 1118.16 178.744C1118.16 176.626 1118.59 174.599 1119.47 172.664C1120.35 170.692 1121.63 168.976 1123.3 167.515C1124.98 166.018 1127.05 164.831 1129.49 163.955C1131.94 163.078 1134.73 162.64 1137.88 162.64C1141.53 162.64 1144.79 163.224 1147.68 164.393C1150.6 165.525 1153.12 167.095 1155.24 169.103L1153.05 172.664ZM1194.96 172.664C1194.52 173.467 1193.85 173.869 1192.94 173.869C1192.39 173.869 1191.77 173.668 1191.07 173.266C1190.38 172.865 1189.52 172.426 1188.5 171.952C1187.51 171.441 1186.33 170.984 1184.94 170.582C1183.55 170.144 1181.91 169.925 1180.01 169.925C1178.37 169.925 1176.89 170.144 1175.57 170.582C1174.26 170.984 1173.13 171.55 1172.18 172.28C1171.26 173.011 1170.55 173.869 1170.04 174.855C1169.57 175.804 1169.33 176.845 1169.33 177.977C1169.33 179.401 1169.73 180.588 1170.53 181.537C1171.37 182.487 1172.47 183.308 1173.82 184.002C1175.17 184.696 1176.7 185.317 1178.42 185.865C1180.14 186.376 1181.89 186.942 1183.68 187.563C1185.51 188.147 1187.28 188.804 1188.99 189.534C1190.71 190.265 1192.24 191.178 1193.59 192.273C1194.94 193.369 1196.02 194.72 1196.83 196.326C1197.67 197.897 1198.09 199.796 1198.09 202.023C1198.09 204.579 1197.63 206.953 1196.72 209.144C1195.8 211.298 1194.45 213.179 1192.66 214.786C1190.87 216.356 1188.68 217.597 1186.09 218.51C1183.5 219.423 1180.5 219.88 1177.11 219.88C1173.24 219.88 1169.73 219.259 1166.59 218.017C1163.45 216.739 1160.78 215.114 1158.59 213.142L1160.89 209.418C1161.19 208.943 1161.53 208.578 1161.93 208.322C1162.34 208.067 1162.85 207.939 1163.47 207.939C1164.12 207.939 1164.82 208.194 1165.55 208.706C1166.28 209.217 1167.16 209.783 1168.18 210.404C1169.24 211.024 1170.52 211.59 1172.01 212.102C1173.51 212.613 1175.37 212.868 1177.6 212.868C1179.5 212.868 1181.16 212.631 1182.58 212.156C1184.01 211.645 1185.19 210.97 1186.14 210.13C1187.09 209.29 1187.79 208.322 1188.23 207.227C1188.7 206.131 1188.94 204.963 1188.94 203.721C1188.94 202.187 1188.52 200.928 1187.68 199.942C1186.87 198.919 1185.8 198.061 1184.45 197.367C1183.1 196.637 1181.54 196.016 1179.79 195.505C1178.07 194.957 1176.3 194.391 1174.48 193.807C1172.69 193.223 1170.92 192.565 1169.16 191.835C1167.45 191.068 1165.91 190.119 1164.56 188.987C1163.21 187.855 1162.12 186.467 1161.28 184.824C1160.47 183.144 1160.07 181.117 1160.07 178.744C1160.07 176.626 1160.51 174.599 1161.39 172.664C1162.26 170.692 1163.54 168.976 1165.22 167.515C1166.9 166.018 1168.96 164.831 1171.41 163.955C1173.86 163.078 1176.65 162.64 1179.79 162.64C1183.44 162.64 1186.71 163.224 1189.6 164.393C1192.52 165.525 1195.04 167.095 1197.15 169.103L1194.96 172.664Z" fill="black"/>
<path d="M969.501 110.914C971.588 110.914 973.313 111.596 974.678 112.961C976.123 114.245 976.845 115.93 976.845 118.017C976.845 120.024 976.123 121.709 974.678 123.074C973.313 124.358 971.588 125 969.501 125H930.373C928.287 125 926.521 124.318 925.076 122.953C923.712 121.509 923.029 119.743 923.029 117.656V48.0691C923.029 45.9823 923.752 44.2567 925.197 42.8923C926.641 41.4476 928.487 40.7252 930.735 40.7252C932.741 40.7252 934.467 41.4476 935.911 42.8923C937.356 44.2567 938.079 45.9823 938.079 48.0691V110.914H969.501ZM1002.67 40.7252C1010.22 40.7252 1016.68 42.6114 1022.06 46.3836C1027.51 50.0757 1031.65 55.1322 1034.46 61.5531C1037.35 67.8938 1038.79 74.997 1038.79 82.8626C1038.79 90.7282 1037.35 97.8715 1034.46 104.292C1031.65 110.633 1027.51 115.69 1022.06 119.462C1016.68 123.154 1010.22 125 1002.67 125H973.898C971.811 125 970.046 124.318 968.601 122.953C967.236 121.509 966.554 119.743 966.554 117.656V48.0691C966.554 45.9823 967.236 44.2567 968.601 42.8923C970.046 41.4476 971.811 40.7252 973.898 40.7252H1002.67ZM1001.47 111.155C1008.69 111.155 1014.11 108.506 1017.72 103.209C1021.33 97.8314 1023.14 91.0493 1023.14 82.8626C1023.14 74.6759 1021.29 67.9339 1017.6 62.6367C1013.99 57.2591 1008.61 54.5703 1001.47 54.5703H981.603V111.155H1001.47ZM1092.47 40.7252C1094.39 40.7252 1095.96 41.3673 1097.16 42.6515C1098.37 43.9357 1098.97 45.5409 1098.97 47.4672V117.656C1098.97 119.743 1098.24 121.509 1096.8 122.953C1095.44 124.318 1093.71 125 1091.62 125C1090.5 125 1089.38 124.839 1088.25 124.518C1087.21 124.117 1086.45 123.595 1085.96 122.953L1041.78 66.8504V118.258C1041.78 120.184 1041.14 121.79 1039.85 123.074C1038.65 124.358 1037.05 125 1035.04 125C1033.11 125 1031.55 124.358 1030.34 123.074C1029.14 121.79 1028.54 120.184 1028.54 118.258V48.0691C1028.54 45.9823 1029.22 44.2567 1030.58 42.8923C1032.03 41.4476 1033.79 40.7252 1035.88 40.7252C1037.09 40.7252 1038.25 40.966 1039.37 41.4476C1040.58 41.9291 1041.46 42.5712 1042.02 43.3738L1085.84 99.236V47.4672C1085.84 45.5409 1086.45 43.9357 1087.65 42.6515C1088.93 41.3673 1090.54 40.7252 1092.47 40.7252Z" fill="black"/>
<path d="M1184.5 124.8H1167.82L1151.15 110.507L1134.47 124.8H1117.8C1115.42 124.8 1113.03 123.847 1111.6 122.418C1109.7 120.512 1109.22 118.606 1109.22 116.224V78.5871C1109.22 76.205 1110.18 73.8229 1111.6 72.3936L1112.08 71.9172L1151.62 38.5679L1191.64 71.9172C1193.07 73.3465 1194.03 75.7286 1194.03 78.1107V115.748C1194.03 118.13 1193.07 120.512 1191.64 121.941C1189.26 123.847 1186.88 124.8 1184.5 124.8ZM1171.63 114.795H1183.54V79.0635L1151.15 51.9076L1118.75 79.0635V114.795H1130.19L1150.67 97.6439L1171.63 114.795Z" fill="black"/>
</svg>