<!-- Generated by IcoMoon.io -->
<svg version="1.1" xmlns="http://www.w3.org/2000/svg" width="27" height="32" viewBox="0 0 27 32">
<title>about</title>
<path d="M13.714 3.252c-1.308 0-2.571 0.22-3.755 0.654-1.112 0.408-2.103 0.985-2.943 1.714-1.576 1.367-2.445 3.125-2.445 4.95 0 1.024 0.267 2.017 0.792 2.951 0.542 0.963 1.357 1.844 2.357 2.547 0.723 0.508 1.209 1.32 1.337 2.234 0.043 0.305 0.069 0.612 0.080 0.918 0.178-0.158 0.351-0.326 0.521-0.507 0.575-0.614 1.352-0.953 2.155-0.953 0.128 0 0.256 0.009 0.385 0.026 0.499 0.067 1.010 0.102 1.516 0.102 1.308 0 2.571-0.22 3.755-0.654 1.112-0.408 2.103-0.985 2.943-1.714 1.576-1.367 2.445-3.125 2.445-4.95s-0.869-3.583-2.445-4.95c-0.841-0.729-1.832-1.306-2.943-1.714-1.183-0.434-2.446-0.654-3.755-0.654l0.001-0.001zM13.714 0c6.733 0 12.19 4.732 12.19 10.57s-5.458 10.57-12.19 10.57c-0.647 0-1.282-0.044-1.901-0.128-2.619 2.794-5.744 3.295-8.766 3.369v-0.684c1.632-0.853 3.048-2.408 3.048-4.183 0-0.248-0.018-0.491-0.052-0.729-2.757-1.938-4.52-4.898-4.52-8.215 0-5.838 5.458-10.57 12.19-10.57v0z"></path>
<path d="M6.357 30.476c-0.057-0.167-0.116-0.331-0.177-0.494s-0.12-0.329-0.177-0.5h-1.78c-0.057 0.171-0.116 0.339-0.177 0.506-0.057 0.163-0.114 0.325-0.171 0.488h-0.798c0.158-0.451 0.309-0.868 0.451-1.25s0.28-0.744 0.414-1.085c0.138-0.341 0.274-0.666 0.408-0.975s0.272-0.614 0.414-0.914h0.725c0.142 0.301 0.28 0.605 0.414 0.914s0.268 0.634 0.402 0.975c0.138 0.341 0.278 0.703 0.421 1.085 0.146 0.382 0.299 0.798 0.457 1.25h-0.829zM5.114 27.069c-0.093 0.215-0.201 0.477-0.323 0.786-0.118 0.309-0.242 0.644-0.372 1.006h1.39c-0.13-0.362-0.256-0.699-0.378-1.012s-0.228-0.573-0.317-0.78zM8.994 30.525c-0.223 0-0.449-0.008-0.677-0.024-0.228-0.012-0.427-0.041-0.597-0.085v-4.102c0.089-0.016 0.185-0.030 0.286-0.043 0.102-0.016 0.205-0.028 0.311-0.037s0.209-0.014 0.311-0.018c0.106-0.004 0.205-0.006 0.299-0.006 0.256 0 0.494 0.020 0.713 0.061 0.219 0.037 0.408 0.1 0.567 0.189 0.162 0.089 0.288 0.207 0.378 0.354s0.134 0.327 0.134 0.542c0 0.199-0.049 0.37-0.146 0.512-0.093 0.142-0.225 0.256-0.396 0.341 0.256 0.085 0.445 0.211 0.567 0.378s0.183 0.378 0.183 0.634c0 0.435-0.158 0.762-0.475 0.981-0.317 0.215-0.803 0.323-1.457 0.323zM8.476 28.574v1.286c0.085 0.008 0.177 0.014 0.274 0.018s0.187 0.006 0.268 0.006c0.159 0 0.305-0.010 0.439-0.030 0.138-0.020 0.256-0.055 0.354-0.104 0.102-0.053 0.181-0.122 0.238-0.207 0.061-0.085 0.091-0.195 0.091-0.329 0-0.24-0.087-0.406-0.262-0.5s-0.417-0.14-0.725-0.14h-0.677zM8.476 27.971h0.542c0.293 0 0.522-0.041 0.689-0.122 0.167-0.085 0.25-0.236 0.25-0.451 0-0.203-0.087-0.347-0.262-0.433-0.171-0.085-0.394-0.128-0.671-0.128-0.118 0-0.223 0.002-0.317 0.006-0.089 0.004-0.167 0.010-0.232 0.018v1.109zM12.354 28.361c0 0.232 0.028 0.443 0.085 0.634 0.057 0.187 0.138 0.347 0.244 0.482 0.11 0.13 0.242 0.232 0.396 0.305s0.329 0.11 0.524 0.11c0.191 0 0.364-0.037 0.518-0.11s0.284-0.175 0.39-0.305c0.11-0.134 0.193-0.295 0.25-0.482 0.057-0.191 0.085-0.402 0.085-0.634s-0.028-0.441-0.085-0.628c-0.057-0.191-0.14-0.351-0.25-0.482-0.106-0.134-0.236-0.238-0.39-0.311s-0.327-0.11-0.518-0.11c-0.195 0-0.37 0.037-0.524 0.11s-0.286 0.177-0.396 0.311c-0.106 0.134-0.187 0.295-0.244 0.482s-0.085 0.396-0.085 0.628zM15.652 28.361c0 0.362-0.055 0.681-0.165 0.957-0.106 0.276-0.252 0.508-0.439 0.695-0.183 0.183-0.398 0.321-0.646 0.414s-0.512 0.14-0.792 0.14-0.547-0.047-0.798-0.14c-0.248-0.093-0.465-0.232-0.652-0.414-0.183-0.187-0.329-0.419-0.439-0.695s-0.165-0.595-0.165-0.957c0-0.362 0.055-0.679 0.165-0.951 0.11-0.276 0.258-0.508 0.445-0.695 0.191-0.187 0.41-0.327 0.658-0.421s0.51-0.14 0.786-0.14c0.276 0 0.538 0.047 0.786 0.14s0.463 0.234 0.646 0.421c0.187 0.187 0.335 0.419 0.445 0.695 0.11 0.272 0.165 0.589 0.165 0.951zM18.121 30.568c-0.289 0-0.536-0.041-0.744-0.122-0.207-0.085-0.38-0.203-0.518-0.354-0.134-0.15-0.234-0.327-0.299-0.53s-0.098-0.427-0.098-0.67v-2.639h0.774v2.566c0 0.191 0.020 0.356 0.061 0.494 0.045 0.134 0.106 0.244 0.183 0.329 0.081 0.085 0.175 0.148 0.28 0.189 0.11 0.041 0.232 0.061 0.366 0.061s0.256-0.020 0.366-0.061c0.11-0.041 0.203-0.104 0.28-0.189 0.081-0.085 0.142-0.195 0.183-0.329 0.045-0.138 0.067-0.303 0.067-0.494v-2.566h0.774v2.639c0 0.244-0.035 0.467-0.104 0.67-0.065 0.203-0.167 0.38-0.305 0.53-0.134 0.15-0.307 0.268-0.518 0.354-0.211 0.081-0.461 0.122-0.75 0.122zM23.724 26.252v0.664h-1.298v3.56h-0.774v-3.56h-1.298v-0.664h3.371z"></path>
</svg>
