<!-- Generated by IcoMoon.io -->
<svg version="1.1" xmlns="http://www.w3.org/2000/svg" width="27" height="32" viewBox="0 0 27 32">
<title>contact</title>
<path d="M20.284 10.69c0 0.456 0.37 0.826 0.826 0.826s0.826-0.37 0.826-0.826c0-3.462-2.817-6.28-6.279-6.28-0.456 0-0.826 0.37-0.826 0.826s0.37 0.826 0.826 0.826c2.551 0 4.627 2.076 4.627 4.628v0z"></path>
<path d="M15.657 0c-0.456 0-0.826 0.37-0.826 0.826s0.37 0.826 0.826 0.826c4.983 0 9.038 4.055 9.038 9.038 0 0.456 0.37 0.826 0.826 0.826s0.826-0.37 0.826-0.826c0-5.895-4.795-10.69-10.689-10.69h-0.001z"></path>
<path d="M7.903 3.57c-0.156-0.156-0.366-0.242-0.584-0.242-0.037 0-0.075 0.002-0.111 0.008-0.256 0.035-0.481 0.187-0.607 0.412-2.582 4.571-1.79 10.359 1.925 14.075 2.217 2.218 5.165 3.439 8.301 3.439h0.001c2.023 0 4.019-0.523 5.771-1.514 0.225-0.127 0.377-0.351 0.412-0.607s-0.052-0.513-0.234-0.696l-14.874-14.875z"></path>
<path d="M17.262 9.072c-0.738-0.738-1.784-0.983-2.728-0.738l3.465 3.466c0.245-0.944 0.001-1.99-0.738-2.728z"></path>
<path d="M6.84 17.939l-2.623 5.247c-0.128 0.256-0.114 0.56 0.037 0.804s0.416 0.392 0.702 0.392h10.915c0.456 0 0.826-0.37 0.826-0.826v-0.973c-3.44-0.034-6.67-1.388-9.106-3.825-0.264-0.264-0.514-0.537-0.751-0.818v-0.001z"></path>
<path d="M2.383 30.568c-0.317 0-0.601-0.049-0.853-0.146s-0.465-0.24-0.64-0.427c-0.175-0.191-0.309-0.423-0.402-0.695s-0.14-0.585-0.14-0.939c0-0.354 0.053-0.666 0.158-0.939 0.11-0.272 0.258-0.502 0.445-0.689 0.187-0.191 0.406-0.335 0.658-0.433s0.522-0.146 0.811-0.146c0.175 0 0.333 0.014 0.475 0.043 0.142 0.024 0.266 0.053 0.372 0.085s0.193 0.067 0.262 0.104c0.069 0.037 0.118 0.063 0.146 0.079l-0.226 0.628c-0.098-0.061-0.238-0.118-0.421-0.171-0.179-0.057-0.374-0.085-0.585-0.085-0.183 0-0.354 0.033-0.512 0.098-0.158 0.061-0.297 0.154-0.414 0.28-0.114 0.126-0.203 0.284-0.268 0.475s-0.098 0.412-0.098 0.664c0 0.223 0.024 0.429 0.073 0.616 0.053 0.187 0.132 0.349 0.238 0.488 0.106 0.134 0.24 0.24 0.402 0.317 0.163 0.073 0.358 0.11 0.585 0.11 0.272 0 0.494-0.026 0.664-0.079 0.171-0.057 0.303-0.11 0.396-0.158l0.207 0.628c-0.049 0.033-0.116 0.065-0.201 0.098-0.081 0.033-0.179 0.065-0.293 0.098-0.114 0.028-0.242 0.051-0.384 0.067-0.142 0.020-0.295 0.030-0.457 0.030zM4.792 28.361c0 0.232 0.028 0.443 0.085 0.634 0.057 0.187 0.138 0.347 0.244 0.482 0.11 0.13 0.242 0.232 0.396 0.305s0.329 0.11 0.524 0.11c0.191 0 0.364-0.037 0.518-0.11s0.284-0.175 0.39-0.305c0.11-0.134 0.193-0.295 0.25-0.482 0.057-0.191 0.085-0.402 0.085-0.634s-0.028-0.441-0.085-0.628c-0.057-0.191-0.14-0.351-0.25-0.482-0.106-0.134-0.236-0.238-0.39-0.311s-0.327-0.11-0.518-0.11c-0.195 0-0.37 0.037-0.524 0.11s-0.286 0.177-0.396 0.311c-0.106 0.134-0.187 0.295-0.244 0.482s-0.085 0.396-0.085 0.628zM8.089 28.361c0 0.362-0.055 0.681-0.165 0.957-0.106 0.276-0.252 0.508-0.439 0.695-0.183 0.183-0.398 0.321-0.646 0.414s-0.512 0.14-0.792 0.14c-0.28 0-0.547-0.047-0.798-0.14-0.248-0.093-0.465-0.232-0.652-0.414-0.183-0.187-0.329-0.419-0.439-0.695s-0.165-0.595-0.165-0.957c0-0.362 0.055-0.679 0.165-0.951 0.11-0.276 0.258-0.508 0.445-0.695 0.191-0.187 0.41-0.327 0.658-0.421s0.51-0.14 0.786-0.14c0.276 0 0.538 0.047 0.786 0.14s0.463 0.234 0.646 0.421c0.187 0.187 0.335 0.419 0.445 0.695 0.11 0.272 0.165 0.589 0.165 0.951zM11.656 30.476c-0.138-0.232-0.293-0.479-0.463-0.744-0.171-0.268-0.347-0.536-0.53-0.805-0.183-0.272-0.37-0.534-0.561-0.786-0.187-0.256-0.366-0.486-0.536-0.689v3.023h-0.756v-4.224h0.628c0.162 0.171 0.337 0.374 0.524 0.61 0.187 0.232 0.374 0.473 0.561 0.725 0.191 0.252 0.374 0.506 0.549 0.762 0.179 0.252 0.337 0.488 0.475 0.707v-2.804h0.762v4.224h-0.652zM16.144 26.252v0.664h-1.298v3.56h-0.774v-3.56h-1.298v-0.664h3.371zM19.066 30.476c-0.057-0.167-0.116-0.331-0.177-0.494s-0.12-0.329-0.177-0.5h-1.78c-0.057 0.171-0.116 0.339-0.177 0.506-0.057 0.163-0.114 0.325-0.171 0.488h-0.798c0.158-0.451 0.309-0.868 0.451-1.25s0.28-0.744 0.414-1.085c0.138-0.341 0.274-0.666 0.408-0.975s0.272-0.614 0.414-0.914h0.725c0.142 0.301 0.28 0.605 0.414 0.914s0.268 0.634 0.402 0.975c0.138 0.341 0.278 0.703 0.421 1.085 0.146 0.382 0.299 0.798 0.457 1.25h-0.829zM17.823 27.069c-0.093 0.215-0.201 0.477-0.323 0.786-0.118 0.309-0.242 0.644-0.372 1.006h1.39c-0.13-0.362-0.256-0.699-0.378-1.012s-0.228-0.573-0.317-0.78zM22.083 30.568c-0.317 0-0.601-0.049-0.853-0.146s-0.465-0.24-0.64-0.427c-0.175-0.191-0.309-0.423-0.402-0.695s-0.14-0.585-0.14-0.939 0.053-0.666 0.158-0.939c0.11-0.272 0.258-0.502 0.445-0.689 0.187-0.191 0.406-0.335 0.658-0.433s0.522-0.146 0.811-0.146c0.175 0 0.333 0.014 0.475 0.043 0.142 0.024 0.266 0.053 0.372 0.085s0.193 0.067 0.262 0.104c0.069 0.037 0.118 0.063 0.146 0.079l-0.226 0.628c-0.098-0.061-0.238-0.118-0.421-0.171-0.179-0.057-0.374-0.085-0.585-0.085-0.183 0-0.354 0.033-0.512 0.098-0.158 0.061-0.297 0.154-0.414 0.28-0.114 0.126-0.203 0.284-0.268 0.475s-0.098 0.412-0.098 0.664c0 0.223 0.024 0.429 0.073 0.616 0.053 0.187 0.132 0.349 0.238 0.488 0.106 0.134 0.24 0.24 0.402 0.317 0.163 0.073 0.358 0.11 0.585 0.11 0.272 0 0.494-0.026 0.664-0.079 0.171-0.057 0.303-0.11 0.396-0.158l0.207 0.628c-0.049 0.033-0.116 0.065-0.201 0.098-0.081 0.033-0.179 0.065-0.293 0.098-0.114 0.028-0.242 0.051-0.384 0.067-0.142 0.020-0.295 0.030-0.457 0.030zM27.004 26.252v0.664h-1.298v3.56h-0.774v-3.56h-1.298v-0.664h3.371z"></path>
</svg>
