<!-- Generated by IcoMoon.io -->
<svg version="1.1" xmlns="http://www.w3.org/2000/svg" width="27" height="32" viewBox="0 0 27 32">
<title>home</title>
<path d="M7.68 26.252h0.768v4.224h-0.768v-1.871h-1.835v1.871h-0.768v-4.224h0.768v1.688h1.835v-1.688zM10.086 28.361c0 0.232 0.028 0.443 0.085 0.634 0.057 0.187 0.138 0.347 0.244 0.482 0.11 0.13 0.242 0.232 0.396 0.305s0.329 0.11 0.524 0.11c0.191 0 0.364-0.037 0.518-0.11s0.284-0.175 0.39-0.305c0.11-0.134 0.193-0.295 0.25-0.482 0.057-0.191 0.085-0.402 0.085-0.634s-0.028-0.441-0.085-0.628c-0.057-0.191-0.14-0.351-0.25-0.482-0.106-0.134-0.236-0.238-0.39-0.311s-0.327-0.11-0.518-0.11c-0.195 0-0.37 0.037-0.524 0.11s-0.286 0.177-0.396 0.311c-0.106 0.134-0.187 0.295-0.244 0.482s-0.085 0.396-0.085 0.628zM13.384 28.361c0 0.362-0.055 0.681-0.165 0.957-0.106 0.276-0.252 0.508-0.439 0.695-0.183 0.183-0.398 0.321-0.646 0.414s-0.512 0.14-0.792 0.14c-0.28 0-0.546-0.047-0.798-0.14-0.248-0.093-0.465-0.232-0.652-0.414-0.183-0.187-0.329-0.419-0.439-0.695s-0.165-0.595-0.165-0.957c0-0.362 0.055-0.679 0.165-0.951 0.11-0.276 0.258-0.508 0.445-0.695 0.191-0.187 0.41-0.327 0.658-0.421s0.51-0.14 0.786-0.14c0.276 0 0.538 0.047 0.786 0.14s0.463 0.234 0.646 0.421c0.187 0.187 0.335 0.419 0.445 0.695 0.11 0.272 0.165 0.589 0.165 0.951zM15.146 26.252c0.089 0.154 0.189 0.343 0.299 0.567s0.222 0.459 0.335 0.707c0.114 0.244 0.226 0.494 0.335 0.75 0.114 0.252 0.217 0.486 0.311 0.701 0.093-0.215 0.195-0.449 0.305-0.701 0.11-0.256 0.221-0.506 0.335-0.75 0.114-0.248 0.226-0.484 0.335-0.707s0.209-0.412 0.299-0.567h0.695c0.037 0.309 0.071 0.638 0.104 0.987 0.033 0.345 0.061 0.701 0.085 1.067 0.028 0.362 0.053 0.727 0.073 1.097 0.024 0.366 0.045 0.723 0.061 1.073h-0.756c-0.016-0.492-0.037-0.998-0.061-1.518-0.020-0.52-0.053-1.024-0.098-1.512-0.045 0.093-0.098 0.205-0.158 0.335s-0.126 0.272-0.195 0.427c-0.069 0.15-0.14 0.307-0.213 0.469-0.069 0.163-0.138 0.321-0.207 0.475-0.065 0.15-0.126 0.293-0.183 0.427-0.057 0.13-0.106 0.242-0.146 0.335h-0.573c-0.041-0.093-0.089-0.207-0.146-0.341s-0.12-0.276-0.189-0.427c-0.065-0.154-0.134-0.313-0.207-0.475-0.069-0.163-0.138-0.319-0.207-0.469s-0.134-0.291-0.195-0.421c-0.061-0.134-0.114-0.246-0.158-0.335-0.045 0.488-0.079 0.991-0.104 1.512-0.020 0.52-0.039 1.026-0.055 1.518h-0.756c0.016-0.349 0.034-0.711 0.055-1.085 0.024-0.374 0.049-0.744 0.073-1.109 0.028-0.37 0.059-0.727 0.091-1.073s0.067-0.664 0.104-0.957h0.713zM19.613 30.476v-4.224h2.712v0.652h-1.944v1.042h1.731v0.64h-1.731v1.237h2.091v0.652h-2.859z"></path>
<path d="M23.167 24.381h-4.794l-4.794-4.041-4.794 4.041h-4.794c-0.685 0-1.37-0.269-1.781-0.674-0.547-0.538-0.685-1.078-0.685-1.751v-10.641c0-0.673 0.274-1.347 0.685-1.751l0.138-0.135 11.368-9.429 11.506 9.429c0.411 0.404 0.685 1.078 0.685 1.751v10.641c0 0.674-0.274 1.347-0.685 1.751-0.685 0.538-1.37 0.809-2.055 0.809h0.002zM19.469 21.553h3.424v-10.102l-9.313-7.678-9.313 7.678v10.102h3.287l5.89-4.848 6.025 4.848z"></path>
</svg>
