<!-- Generated by IcoMoon.io -->
<svg version="1.1" xmlns="http://www.w3.org/2000/svg" width="27" height="32" viewBox="0 0 27 32">
<title>more</title>
<path d="M6.4 15.086c-1.347 0-2.438-1.125-2.438-2.514s1.091-2.514 2.438-2.514 2.438 1.125 2.438 2.514c0 1.389-1.091 2.514-2.438 2.514zM13.714 15.086c-1.347 0-2.438-1.125-2.438-2.514s1.091-2.514 2.438-2.514 2.438 1.125 2.438 2.514c0 1.389-1.091 2.514-2.438 2.514zM21.029 15.086c-1.347 0-2.438-1.125-2.438-2.514s1.091-2.514 2.438-2.514 2.438 1.125 2.438 2.514c0 1.389-1.091 2.514-2.438 2.514z"></path>
<path d="M5.998 26.252c0.089 0.154 0.189 0.343 0.299 0.567s0.221 0.459 0.335 0.707c0.114 0.244 0.226 0.494 0.335 0.75 0.114 0.252 0.217 0.486 0.311 0.701 0.093-0.215 0.195-0.449 0.305-0.701 0.11-0.256 0.221-0.506 0.335-0.75 0.114-0.248 0.226-0.484 0.335-0.707s0.209-0.412 0.299-0.567h0.695c0.037 0.309 0.071 0.638 0.104 0.987 0.033 0.345 0.061 0.701 0.085 1.067 0.028 0.362 0.053 0.727 0.073 1.097 0.024 0.366 0.045 0.723 0.061 1.073h-0.756c-0.016-0.492-0.037-0.998-0.061-1.518-0.020-0.52-0.053-1.024-0.098-1.512-0.045 0.093-0.098 0.205-0.158 0.335s-0.126 0.272-0.195 0.427c-0.069 0.15-0.14 0.307-0.213 0.469-0.069 0.163-0.138 0.321-0.207 0.475-0.065 0.15-0.126 0.293-0.183 0.427-0.057 0.13-0.106 0.242-0.146 0.335h-0.573c-0.041-0.093-0.089-0.207-0.146-0.341s-0.12-0.276-0.189-0.427c-0.065-0.154-0.134-0.313-0.207-0.475-0.069-0.163-0.138-0.319-0.207-0.469s-0.134-0.291-0.195-0.421c-0.061-0.134-0.114-0.246-0.158-0.335-0.045 0.488-0.079 0.991-0.104 1.512-0.020 0.52-0.039 1.026-0.055 1.518h-0.756c0.016-0.349 0.035-0.711 0.055-1.085 0.024-0.374 0.049-0.744 0.073-1.109 0.028-0.37 0.059-0.727 0.091-1.073s0.067-0.664 0.104-0.957h0.713zM11.092 28.361c0 0.232 0.028 0.443 0.085 0.634 0.057 0.187 0.138 0.347 0.244 0.482 0.11 0.13 0.242 0.232 0.396 0.305s0.329 0.11 0.524 0.11c0.191 0 0.364-0.037 0.518-0.11s0.284-0.175 0.39-0.305c0.11-0.134 0.193-0.295 0.25-0.482 0.057-0.191 0.085-0.402 0.085-0.634s-0.028-0.441-0.085-0.628c-0.057-0.191-0.14-0.351-0.25-0.482-0.106-0.134-0.236-0.238-0.39-0.311s-0.327-0.11-0.518-0.11c-0.195 0-0.37 0.037-0.524 0.11s-0.286 0.177-0.396 0.311c-0.106 0.134-0.187 0.295-0.244 0.482s-0.085 0.396-0.085 0.628zM14.39 28.361c0 0.362-0.055 0.681-0.165 0.957-0.106 0.276-0.252 0.508-0.439 0.695-0.183 0.183-0.398 0.321-0.646 0.414s-0.512 0.14-0.792 0.14c-0.28 0-0.546-0.047-0.798-0.14-0.248-0.093-0.465-0.232-0.652-0.414-0.183-0.187-0.329-0.419-0.439-0.695s-0.165-0.595-0.165-0.957c0-0.362 0.055-0.679 0.165-0.951 0.11-0.276 0.258-0.508 0.445-0.695 0.191-0.187 0.41-0.327 0.658-0.421s0.51-0.14 0.786-0.14c0.276 0 0.538 0.047 0.786 0.14s0.463 0.234 0.646 0.421c0.187 0.187 0.335 0.419 0.445 0.695 0.11 0.272 0.165 0.589 0.165 0.951zM16.396 26.21c0.61 0 1.075 0.112 1.396 0.335 0.325 0.223 0.488 0.565 0.488 1.024 0 0.573-0.282 0.961-0.847 1.164 0.077 0.093 0.165 0.207 0.262 0.341s0.197 0.28 0.299 0.439c0.102 0.154 0.199 0.315 0.293 0.482 0.093 0.163 0.177 0.323 0.25 0.482h-0.859c-0.077-0.146-0.16-0.293-0.25-0.439-0.089-0.15-0.181-0.295-0.274-0.433-0.089-0.142-0.179-0.274-0.268-0.396-0.089-0.126-0.173-0.238-0.25-0.335-0.057 0.004-0.106 0.006-0.146 0.006s-0.079 0-0.116 0h-0.372v1.597h-0.768v-4.163c0.187-0.041 0.386-0.067 0.597-0.079 0.211-0.016 0.4-0.024 0.567-0.024zM16.451 26.874c-0.163 0-0.313 0.006-0.451 0.018v1.365h0.335c0.187 0 0.352-0.010 0.494-0.030s0.26-0.057 0.354-0.11c0.098-0.053 0.171-0.124 0.219-0.213s0.073-0.203 0.073-0.341c0-0.13-0.024-0.24-0.073-0.329s-0.12-0.161-0.213-0.213c-0.089-0.053-0.197-0.089-0.323-0.11-0.126-0.024-0.264-0.037-0.414-0.037zM19.131 30.476v-4.224h2.712v0.652h-1.944v1.042h1.731v0.64h-1.731v1.237h2.091v0.652h-2.859z"></path>
</svg>
